#N canvas 8 459 544 563 10;
#X obj 46 328 osc~ 440;
#X obj 324 254 r enable;
#X obj 314 366 line~ 0;
#X msg 312 337 1 100;
#X obj 127 404 *~;
#X obj 124 446 dac~;
#X obj 324 303 sel 1 0;
#X msg 373 339 0 200;
#X text 51 99 From Xcode;
#X text 321 235 From Xcode;
#X obj 324 279 tgl 15 0 empty empty empty 17 7 0 10 -262144 -1 -1 0
1;
#X text 351 278 On/Off;
#X text 6 6 LSU Center for Computation & Technology;
#X text 6 24 MAG - Mobile [ App | Art | Action ] Group;
#X text 30 43 Jesse Allison 2012;
#X obj 45 100 r pitch;
#X obj 48 212 + 20;
#X obj 48 152 + 1;
#X obj 48 175 * 400;
#X obj 126 135 r vibrato_speed;
#X obj 126 185 * 20;
#X obj 126 217 osc~ 0;
#X obj 200 158 r vibrato_depth;
#X obj 126 245 *~ 0.5;
#X obj 200 184 clip -1 1;
#X obj 126 160 clip -1 1;
#X obj 47 128 clip -1 1;
#X obj 48 248 sig~;
#X obj 46 297 +~;
#X obj 200 208 * 20;
#X connect 0 0 4 0;
#X connect 1 0 10 0;
#X connect 2 0 4 1;
#X connect 3 0 2 0;
#X connect 4 0 5 0;
#X connect 4 0 5 1;
#X connect 6 0 3 0;
#X connect 6 1 7 0;
#X connect 7 0 2 0;
#X connect 10 0 6 0;
#X connect 15 0 26 0;
#X connect 16 0 27 0;
#X connect 17 0 18 0;
#X connect 18 0 16 0;
#X connect 19 0 25 0;
#X connect 20 0 21 0;
#X connect 21 0 23 0;
#X connect 22 0 24 0;
#X connect 23 0 28 1;
#X connect 24 0 29 0;
#X connect 25 0 20 0;
#X connect 26 0 17 0;
#X connect 27 0 28 0;
#X connect 28 0 0 0;
#X connect 29 0 23 1;
